<!DOCTYPE svg PUBLIC "-//W3C//DTD SVG 1.1//EN" "http://www.w3.org/Graphics/SVG/1.1/DTD/svg11.dtd">
<!-- Uploaded to: SVG Repo, www.svgrepo.com, Transformed by: SVG Repo Mixer Tools -->
<svg fill="#666666" version="1.1" id="Layer_1" xmlns="http://www.w3.org/2000/svg" xmlns:xlink="http://www.w3.org/1999/xlink" viewBox="0 0 491.594 491.594" xml:space="preserve" width="800px" height="800px">
<g id="SVGRepo_bgCarrier" stroke-width="0"/>
<g id="SVGRepo_tracerCarrier" stroke-linecap="round" stroke-linejoin="round"/>
<g id="SVGRepo_iconCarrier"> <g> <g> <g> <rect x="143.397" y="81.957" width="204.8" height="81.92"/> <rect x="143.397" y="204.837" width="40.96" height="40.96"/> <rect x="225.317" y="204.837" width="40.96" height="40.96"/> <rect x="307.237" y="204.837" width="40.96" height="40.96"/> <path d="M488.168,377.885c-0.108-0.163-0.222-0.32-0.334-0.48c-0.126-0.178-0.241-0.359-0.373-0.536l-57.344-76.459V87.282 c0-48.175-39.07-87.245-87.245-87.245h-194.15c-48.175,0-87.245,39.07-87.245,87.245v213.129L4.133,376.869 c-0.132,0.176-0.247,0.358-0.373,0.536c-0.112,0.16-0.226,0.317-0.334,0.48c-2.574,3.872-3.612,8.148-3.389,12.277v80.915 c0,11.311,9.169,20.48,20.48,20.48h450.56c11.311,0,20.48-9.169,20.48-20.48v-80.915 C491.78,386.033,490.742,381.757,488.168,377.885z M102.437,87.282c0-25.553,20.732-46.285,46.285-46.285h194.15 c25.553,0,46.285,20.732,46.285,46.285v199.475h-286.72V87.282z M92.197,327.717h307.2l30.72,40.96H61.477L92.197,327.717z M450.597,450.597h-409.6v-40.96h409.6V450.597z"/> </g> </g> </g> </g>
</svg>